<svg xmlns="http://www.w3.org/2000/svg" xmlns:xlink="http://www.w3.org/1999/xlink" id="Layer_1" x="0" y="0" version="1.1" viewBox="0 0 100 100" xml:space="preserve" style="enable-background:new 0 0 100 100"><style type="text/css">.st0,.st1{fill:none;stroke:#000;stroke-width:8;stroke-miterlimit:10}.st1{stroke:#fff}.st2{fill:#a5a5a5}</style><path d="M94.3,65.3" class="st0"/><path d="M43.6,5.7" class="st0"/><ellipse cx="50.48" cy="49.71" class="st1" rx="44.4" ry="45" transform="matrix(0.7071 -0.7071 0.7071 0.7071 -20.3649 50.2553)"/><g><path d="M71.39,73.99c-1.94,1.94-5.13,1.94-7.07,0L26.01,35.68c-1.94-1.94-1.94-5.13,0-7.07l2.6-2.6 c1.94-1.94,5.13-1.94,7.07,0l38.31,38.31c1.94,1.94,1.94,5.13,0,7.07L71.39,73.99z" class="st2"/></g><path d="M19.3,65.3" class="st0"/><g><path d="M26.01,71.39c-1.94-1.94-1.94-5.13,0-7.07l38.31-38.31c1.94-1.94,5.13-1.94,7.07,0l2.6,2.6 c1.94,1.94,1.94,5.13,0,7.07L35.68,73.99c-1.94,1.94-5.13,1.94-7.07,0L26.01,71.39z" class="st2"/></g></svg>