<svg xmlns="http://www.w3.org/2000/svg" xmlns:svg="http://www.w3.org/2000/svg" id="svg8" width="210mm" height="297mm" version="1.1" viewBox="0 0 210 297" xml:space="preserve"><defs id="defs2"><style id="style388"/><style id="style1160"/></defs><metadata id="metadata5"/><g id="layer1"><g id="g3350"><path style="fill:#5e5e5e;fill-opacity:1;fill-rule:nonzero;stroke:none;stroke-width:1.71121;stroke-miterlimit:4;stroke-dasharray:none;stroke-opacity:1" id="path834" d="M 200.42323,136.43539 A 95.249999,95.249999 0 0 1 105.17324,231.68538 95.249999,95.249999 0 0 1 9.9232285,136.43539 95.249999,95.249999 0 0 1 105.17324,41.185387 95.249999,95.249999 0 0 1 200.42323,136.43539"/><g id="g3343"><rect id="rect2224" width="109.797" height="74.128" x="38.076" y="113.364" ry="8.281" style="fill:none;fill-opacity:1;stroke:#fff;stroke-width:10.5369;stroke-linecap:round;stroke-dasharray:none;stroke-opacity:1"/><path style="fill:#5e5e5e;fill-opacity:1;stroke:#5e5e5e;stroke-width:10.5369;stroke-linecap:round;stroke-dasharray:none;stroke-opacity:1" id="path3305" d="m 163.66992,75.322266 c -31.78275,0.02718 -63.56804,-4.74e-4 -95.349078,0.154159 -8.936575,1.06582 -16.247011,9.621984 -15.919367,18.614196 0.08165,18.671429 -0.05261,37.344079 0.175458,56.014619 0.0534,2.13844 -0.0852,4.32319 0.616892,6.38143 2.22204,7.53879 9.721238,13.16474 17.596012,13.1069 2.840264,0.0212 5.679714,-0.1186 8.520319,-0.0452 28.997774,-0.0232 57.997934,0.0303 86.994094,-0.13934 3.53024,-0.38226 6.89811,-1.99437 9.51271,-4.27624 4.17017,-3.58105 6.78995,-9.03488 6.52507,-14.57265 -0.0541,-19.66979 -19.43932,-28.83334 -19.67173,-48.50168 -1.8758,-5.385371 -3.40124,3.17431 -6.77069,0.24558 -3.35797,-2.968501 12.27645,-27.133192 7.77031,-26.981794 z"/><path style="fill:#5e5e5e;fill-opacity:1;stroke:#fff;stroke-width:10.5369;stroke-linecap:round;stroke-dasharray:none;stroke-opacity:1" id="rect1407" d="m 161.25391,85.388672 c -30.44767,0.0013 -60.89688,-0.03737 -91.34357,0.03023 -3.975377,0.331055 -7.390136,3.935876 -7.411326,7.944961 -0.07989,2.781453 0.02886,5.56687 -0.01488,8.350194 -0.0011,16.82024 -0.04701,33.6429 0.04259,50.46161 0.384161,4.19418 4.443158,7.66543 8.658429,7.31694 30.886424,0.0185 61.772964,0.0391 92.659344,-0.0252 4.54867,0.30536 8.71758,-3.96977 8.4112,-8.49787 0.0266,-19.38429 0.0409,-38.76887 -0.0272,-58.153134 -0.33181,-4.023043 -4.01075,-7.460374 -8.06702,-7.426321 -0.96848,-0.03967 -1.93867,-0.01223 -2.90759,-0.0014 z"/></g></g></g></svg>